<?xml version="1.0" encoding="UTF-8" standalone="no"?>
<!-- Created with Inkscape (http://www.inkscape.org/) -->

<svg
   xmlns:dc="http://purl.org/dc/elements/1.1/"
   xmlns:cc="http://creativecommons.org/ns#"
   xmlns:rdf="http://www.w3.org/1999/02/22-rdf-syntax-ns#"
   xmlns:svg="http://www.w3.org/2000/svg"
   xmlns="http://www.w3.org/2000/svg"
   xmlns:sodipodi="http://sodipodi.sourceforge.net/DTD/sodipodi-0.dtd"
   xmlns:inkscape="http://www.inkscape.org/namespaces/inkscape"
   width="4.4446101mm"
   height="4.4455299mm"
   viewBox="0 0 4.4446101 4.44553"
   version="1.1"
   id="svg8"
   inkscape:version="0.92.3 (2405546, 2018-03-11)"
   sodipodi:docname="image.svg">
  <defs
     id="defs2" />
  <sodipodi:namedview
     id="base"
     pagecolor="#ffffff"
     bordercolor="#666666"
     borderopacity="1.0"
     inkscape:pageopacity="0.0"
     inkscape:pageshadow="2"
     inkscape:zoom="22.4"
     inkscape:cx="18.513784"
     inkscape:cy="8.2916065"
     inkscape:document-units="mm"
     inkscape:current-layer="layer1"
     showgrid="false"
     fit-margin-top="0"
     fit-margin-left="0"
     fit-margin-right="0"
     fit-margin-bottom="0"
     inkscape:window-width="1869"
     inkscape:window-height="1025"
     inkscape:window-x="51"
     inkscape:window-y="27"
     inkscape:window-maximized="1" />
  <metadata
     id="metadata5">
    <rdf:RDF>
      <cc:Work
         rdf:about="">
        <dc:format>image/svg+xml</dc:format>
        <dc:type
           rdf:resource="http://purl.org/dc/dcmitype/StillImage" />
        <dc:title></dc:title>
      </cc:Work>
    </rdf:RDF>
  </metadata>
  <g
     inkscape:label="Layer 1"
     inkscape:groupmode="layer"
     id="layer1"
     transform="translate(-183.97873,-230.78738)">
    <g
       id="g21"
       transform="translate(-1.2751727,0.26578425)">
      <path
         style="fill:#e4e4e3;stroke-width:0.01388889"
         d="m 186.52914,234.70048 c 0.002,-0.14621 -0.001,-0.27146 -0.008,-0.27835 -0.007,-0.007 -0.28446,-0.0122 -0.63975,-0.0117 l -0.62723,8.2e-4 v -0.28029 -0.28029 l 0.6246,0.009 c 0.58047,0.008 0.62558,0.007 0.63846,-0.0151 0.013,-0.0223 0.014,-0.0223 0.016,5.2e-4 0.004,0.0435 0.005,0.0496 0.0161,0.0602 0.006,0.006 0.0104,0.11486 0.0104,0.24251 0,0.18437 0.004,0.23549 0.0199,0.24859 0.0145,0.0121 0.17927,0.0172 0.61458,0.0191 l 0.59471,0.003 0.004,0.27431 0.004,0.2743 -0.63571,2e-5 -0.63571,1e-5 0.004,-0.26582 z m 1.48525,-0.85557 c 0.0401,-0.003 0.10573,-0.003 0.14583,0 0.0401,0.003 0.007,0.005 -0.0729,0.005 -0.0802,0 -0.11302,-0.002 -0.0729,-0.005 z m 1.05118,-0.008 c -0.004,-0.01 -0.005,-0.0928 -0.003,-0.18402 l 0.004,-0.16586 0.31597,-0.004 0.31597,-0.004 v 0.18776 0.18776 h -0.31293 c -0.24497,0 -0.31445,-0.004 -0.31991,-0.0182 z m -2.92966,-0.34458 c -0.20625,-0.005 -0.48906,-0.009 -0.62847,-0.0104 l -0.25347,-0.002 v -1.47916 -1.47917 h 0.31938 0.31938 l 0.004,1.47569 0.004,1.4757 0.29859,0.004 c 0.26846,0.003 0.30034,0.001 0.31597,-0.02 0.0162,-0.0222 0.0174,-0.0222 0.0174,-2.8e-4 0,0.0213 0.0291,0.0237 0.30903,0.0262 0.16996,0.001 0.27152,0.005 0.22569,0.007 -0.19697,0.01 -0.58196,0.0108 -0.93056,0.003 z m 1.65969,-0.005 c 1e-5,-0.009 0.11025,-0.0116 0.316,-0.007 0.31687,0.007 0.29061,0.011 -0.10418,0.0177 -0.13435,0.002 -0.21182,-0.001 -0.21182,-0.0103 z"
         id="path37"
         inkscape:connector-curvature="0" />
      <path
         style="fill:#f7f906;stroke-width:0.01388889"
         d="m 188.29564,234.39913 -0.0347,-0.0105 -0.008,-0.2494 c -0.004,-0.13717 -0.009,-0.25117 -0.0104,-0.25332 -0.001,-0.002 -0.0167,-0.01 -0.0339,-0.0173 -0.0217,-0.009 0.0215,-0.0123 0.14236,-0.01 0.0955,0.002 0.18143,0.009 0.19097,0.0146 0.0239,0.0153 0.025,0.50317 0.001,0.51787 -0.0233,0.0144 -0.20667,0.0202 -0.24771,0.008 z m -1.76584,-0.55604 c -0.007,-0.0185 -0.011,-0.10309 -0.009,-0.1879 l 0.004,-0.1542 0.31945,-0.007 c 0.17569,-0.004 0.31944,-0.007 0.31944,-0.007 0,0 -0.002,0.0822 -0.004,0.1827 l -0.004,0.18271 -0.1555,0.008 c -0.0855,0.004 -0.22336,0.01 -0.30631,0.0122 -0.14851,0.004 -0.15101,0.003 -0.16363,-0.0297 z m -0.62742,-0.37193 c -0.005,-0.005 -0.01,-0.67098 -0.01,-1.47943 v -1.46991 h 0.31256 0.31257 l -0.004,1.47569 -0.004,1.4757 -0.2995,0.004 c -0.16473,0.002 -0.30379,-5.5e-4 -0.30903,-0.006 z"
         id="path35"
         inkscape:connector-curvature="0" />
      <path
         style="fill:#05f9f4;stroke-width:0.01388889"
         d="m 188.92064,234.39898 -0.0347,-0.0103 -0.004,-0.24836 c -0.002,-0.1366 0.001,-0.25319 0.007,-0.25908 0.0204,-0.0203 0.16384,-0.0335 0.27463,-0.0251 0.0611,0.005 0.0974,0.009 0.0807,0.0107 -0.0167,0.001 -0.0349,0.01 -0.0404,0.0185 -0.006,0.009 -0.009,0.12038 -0.007,0.24772 0.003,0.20264 2e-5,0.23395 -0.0205,0.25099 -0.0261,0.0217 -0.19915,0.0319 -0.25571,0.015 z m -1.11924,-0.57855 c -0.004,-0.0153 -0.005,-0.0934 -0.003,-0.17361 l 0.004,-0.14583 h 0.3125 0.3125 l 0.004,0.15855 c 0.003,0.1006 -0.002,0.16405 -0.0111,0.17361 -0.01,0.01 -0.11762,0.0151 -0.31359,0.0151 -0.28695,0 -0.29879,-0.001 -0.30543,-0.0278 z m -1.27472,-0.37127 c -0.005,-0.0173 -0.009,-0.68307 -0.009,-1.47942 l -1.9e-4,-1.44792 h 0.31951 0.3195 l -0.004,1.47569 -0.004,1.4757 -0.30734,0.004 -0.30734,0.004 z"
         id="path33"
         inkscape:connector-curvature="0" />
      <path
         style="fill:#f704f5;stroke-width:0.01388889"
         d="m 189.52133,234.39639 c -0.0301,-0.0121 -0.0313,-0.0194 -0.0328,-0.19704 -0.003,-0.3352 -0.001,-0.32066 -0.0401,-0.33166 -0.0198,-0.006 0.0266,-0.0104 0.10764,-0.0112 l 0.14236,-0.001 v 0.27778 0.27778 l -0.0729,-8.8e-4 c -0.0401,-4.9e-4 -0.087,-0.007 -0.10417,-0.0134 z m -3.51042,-0.54024 -0.125,-0.008 v -0.17735 -0.17735 l 0.3125,0.004 0.3125,0.004 v 0.18055 0.18056 l -0.1875,0.001 c -0.10312,5.4e-4 -0.24375,-0.003 -0.3125,-0.007 z m 1.79399,-0.38526 c -0.005,-0.005 -0.009,-0.67071 -0.009,-1.47916 v -1.46991 h 0.31944 0.31945 v 1.47917 1.47916 h -0.31019 c -0.1706,0 -0.31435,-0.004 -0.31944,-0.009 z"
         id="path31"
         inkscape:connector-curvature="0" />
      <path
         style="fill:#05f908;stroke-width:0.01388889"
         d="m 188.51786,234.39828 0.0347,-0.01 v -0.25569 -0.25569 l -0.0347,-0.01 c -0.0191,-0.005 0.0715,-0.01 0.20139,-0.01 0.12986,0 0.22048,0.004 0.20139,0.01 l -0.0347,0.01 v 0.25569 0.25569 l 0.0347,0.01 c 0.0191,0.005 -0.0715,0.01 -0.20139,0.01 -0.12986,0 -0.22049,-0.004 -0.20139,-0.01 z m -0.10417,-0.55702 c 0.005,-0.008 0.0113,-0.0139 0.0147,-0.0139 0.003,0 0.006,0.006 0.006,0.0139 0,0.008 -0.007,0.0139 -0.0147,0.0139 -0.008,0 -0.0108,-0.006 -0.006,-0.0139 z m -1.26029,-1.84027 0.004,-1.47917 h 0.31932 0.31932 v 1.4572 c 0,0.80146 -0.004,1.46708 -0.008,1.47916 -0.007,0.0191 -0.049,0.022 -0.32292,0.022 h -0.31449 z"
         id="path29"
         inkscape:connector-curvature="0" />
      <path
         style="fill:#0503f9;stroke-width:0.01388889"
         d="m 189.15675,234.3927 0.0347,-0.0176 0.001,-0.23993 c 8.9e-4,-0.14363 0.007,-0.24565 0.0157,-0.25419 0.0206,-0.0206 0.16874,-0.031 0.22582,-0.0159 0.0555,0.0147 0.0511,-0.0122 0.054,0.33424 0.001,0.17764 0.003,0.18494 0.0328,0.19704 0.0207,0.008 -0.0413,0.0128 -0.18403,0.0132 -0.18251,5.8e-4 -0.20999,-0.002 -0.18055,-0.0169 z m -3.90278,-0.72479 v -0.18776 h 0.29596 c 0.21625,0 0.3024,0.005 0.31991,0.0175 0.0208,0.0152 0.0234,0.0395 0.02,0.18403 l -0.004,0.16651 -0.31597,0.004 -0.31597,0.004 z m 3.80556,-1.66692 v -1.47917 h 0.31944 0.31944 v 1.47917 1.47916 h -0.31944 -0.31944 z"
         id="path27"
         inkscape:connector-curvature="0" />
      <path
         style="fill:#f60405;stroke-width:0.01388889"
         d="m 187.92681,234.39288 c -0.004,-0.01 -0.005,-0.13012 -0.003,-0.26736 l 0.004,-0.24953 0.14463,-0.004 c 0.0906,-0.002 0.15027,0.002 0.15972,0.0111 0.009,0.009 0.0178,0.11154 0.022,0.26033 l 0.007,0.24528 0.0347,0.01 c 0.0191,0.005 -0.0545,0.0102 -0.16363,0.011 -0.14967,0.001 -0.20004,-0.003 -0.2052,-0.0164 z m -0.76701,-0.71481 0.004,-0.17708 0.30457,-0.004 c 0.23438,-0.003 0.30714,3.1e-4 0.31576,0.0139 0.0183,0.0289 0.014,0.30831 -0.005,0.32736 -0.0119,0.0119 -0.10256,0.0167 -0.31986,0.0167 h -0.30319 z m 1.27473,-1.67708 v -1.47917 h 0.3125 0.3125 l -1.9e-4,1.44792 c -1.1e-4,0.79635 -0.004,1.46198 -0.009,1.47916 -0.008,0.0312 -0.009,0.0312 -0.31231,0.0312 h -0.30393 z"
         id="path25"
         inkscape:connector-curvature="0" />
      <path
         style="fill:#201f1f;stroke-width:0.01388889"
         d="m 185.25397,234.68877 v -0.2775 l 0.6257,-0.004 c 0.38201,-0.002 0.63084,10e-4 0.63889,0.009 0.0143,0.0143 0.0186,0.4912 0.005,0.52733 -0.008,0.0196 -0.0768,0.022 -0.63889,0.022 h -0.63046 z m 2.53849,0.003 -0.004,-0.27431 -0.59471,-0.003 c -0.43531,-0.002 -0.60004,-0.007 -0.61458,-0.0191 -0.0158,-0.0131 -0.0199,-0.0644 -0.0199,-0.25008 0,-0.16777 -0.005,-0.23652 -0.0168,-0.24398 -0.0393,-0.0243 0.0953,-0.033 0.64181,-0.0416 0.38963,-0.006 0.58274,-0.014 0.596,-0.0245 0.0146,-0.0115 0.0211,-0.0111 0.0255,0.002 0.004,0.0126 0.0581,0.0181 0.19565,0.02 0.18727,0.003 0.18805,0.003 0.0579,0.0104 l -0.13195,0.008 v 0.26389 0.26388 l 0.88542,0.004 0.88541,0.004 v 0.27768 0.27767 h -0.95109 -0.9511 z m 0.64207,-1.00207 c 0,-0.0912 -0.004,-0.17568 -0.008,-0.18777 -0.008,-0.0196 0.0249,-0.022 0.30454,-0.022 0.28631,0 0.31353,-0.002 0.31952,-0.0243 0.004,-0.0134 0.006,0.0694 0.004,0.18403 l -0.002,0.20833 -0.30903,0.004 -0.30902,0.004 z m -0.65278,-0.18196 c 0,-0.009 -0.1144,-0.0151 -0.30903,-0.0171 l -0.30903,-0.003 0.30491,-0.004 c 0.2224,-0.003 0.30784,-0.009 0.31576,-0.0211 0.007,-0.0106 0.0109,-0.003 0.0111,0.0211 1.1e-4,0.021 -0.003,0.0382 -0.007,0.0382 -0.004,0 -0.007,-0.006 -0.007,-0.0139 z"
         id="path23"
         inkscape:connector-curvature="0" />
    </g>
  </g>
</svg>
